<mxfile host="app.diagrams.net" agent="Mozilla/5.0 (Windows NT 10.0; Win64; x64) AppleWebKit/537.36 (KHTML, like Gecko) Chrome/134.0.0.0 Safari/537.36" version="26.1.0">
  <diagram name="Page-1" id="2YBvvXClWsGukQMizWep">
    <mxGraphModel grid="1" page="1" gridSize="10" guides="1" tooltips="1" connect="1" arrows="1" fold="1" pageScale="1" pageWidth="850" pageHeight="1100" math="0" shadow="0">
      <root>
        <mxCell id="0" />
        <mxCell id="1" parent="0" />
        <mxCell id="vooGNpIg4JtQKSrzOWb7-1" value="Administrador" style="shape=umlLifeline;perimeter=lifelinePerimeter;whiteSpace=wrap;html=1;container=1;dropTarget=0;collapsible=0;recursiveResize=0;outlineConnect=0;portConstraint=eastwest;newEdgeStyle={&quot;curved&quot;:0,&quot;rounded&quot;:0};participant=umlActor;labelPosition=center;verticalLabelPosition=top;align=center;verticalAlign=bottom;" vertex="1" parent="1">
          <mxGeometry x="110" y="170" width="20" height="340" as="geometry" />
        </mxCell>
        <mxCell id="vooGNpIg4JtQKSrzOWb7-19" value="" style="html=1;points=[[0,0,0,0,5],[0,1,0,0,-5],[1,0,0,0,5],[1,1,0,0,-5]];perimeter=orthogonalPerimeter;outlineConnect=0;targetShapes=umlLifeline;portConstraint=eastwest;newEdgeStyle={&quot;curved&quot;:0,&quot;rounded&quot;:0};" vertex="1" parent="vooGNpIg4JtQKSrzOWb7-1">
          <mxGeometry x="5" y="100" width="10" height="30" as="geometry" />
        </mxCell>
        <mxCell id="vooGNpIg4JtQKSrzOWb7-24" value="" style="html=1;points=[[0,0,0,0,5],[0,1,0,0,-5],[1,0,0,0,5],[1,1,0,0,-5]];perimeter=orthogonalPerimeter;outlineConnect=0;targetShapes=umlLifeline;portConstraint=eastwest;newEdgeStyle={&quot;curved&quot;:0,&quot;rounded&quot;:0};" vertex="1" parent="vooGNpIg4JtQKSrzOWb7-1">
          <mxGeometry x="5" y="230" width="10" height="20" as="geometry" />
        </mxCell>
        <mxCell id="vooGNpIg4JtQKSrzOWb7-2" value="Sistema" style="shape=umlLifeline;perimeter=lifelinePerimeter;whiteSpace=wrap;html=1;container=1;dropTarget=0;collapsible=0;recursiveResize=0;outlineConnect=0;portConstraint=eastwest;newEdgeStyle={&quot;curved&quot;:0,&quot;rounded&quot;:0};" vertex="1" parent="1">
          <mxGeometry x="280" y="170" width="100" height="340" as="geometry" />
        </mxCell>
        <mxCell id="vooGNpIg4JtQKSrzOWb7-16" value="" style="html=1;points=[[0,0,0,0,5],[0,1,0,0,-5],[1,0,0,0,5],[1,1,0,0,-5]];perimeter=orthogonalPerimeter;outlineConnect=0;targetShapes=umlLifeline;portConstraint=eastwest;newEdgeStyle={&quot;curved&quot;:0,&quot;rounded&quot;:0};" vertex="1" parent="vooGNpIg4JtQKSrzOWb7-2">
          <mxGeometry x="45" y="70" width="10" height="30" as="geometry" />
        </mxCell>
        <mxCell id="vooGNpIg4JtQKSrzOWb7-20" value="" style="html=1;points=[[0,0,0,0,5],[0,1,0,0,-5],[1,0,0,0,5],[1,1,0,0,-5]];perimeter=orthogonalPerimeter;outlineConnect=0;targetShapes=umlLifeline;portConstraint=eastwest;newEdgeStyle={&quot;curved&quot;:0,&quot;rounded&quot;:0};" vertex="1" parent="vooGNpIg4JtQKSrzOWb7-2">
          <mxGeometry x="45" y="130" width="10" height="30" as="geometry" />
        </mxCell>
        <mxCell id="vooGNpIg4JtQKSrzOWb7-23" value="" style="html=1;points=[[0,0,0,0,5],[0,1,0,0,-5],[1,0,0,0,5],[1,1,0,0,-5]];perimeter=orthogonalPerimeter;outlineConnect=0;targetShapes=umlLifeline;portConstraint=eastwest;newEdgeStyle={&quot;curved&quot;:0,&quot;rounded&quot;:0};" vertex="1" parent="vooGNpIg4JtQKSrzOWb7-2">
          <mxGeometry x="45" y="190" width="10" height="40" as="geometry" />
        </mxCell>
        <mxCell id="vooGNpIg4JtQKSrzOWb7-3" value="Base de datos" style="shape=cylinder3;whiteSpace=wrap;html=1;boundedLbl=1;backgroundOutline=1;size=15;" vertex="1" parent="1">
          <mxGeometry x="510" y="140" width="60" height="70" as="geometry" />
        </mxCell>
        <mxCell id="vooGNpIg4JtQKSrzOWb7-5" value="" style="endArrow=none;dashed=1;html=1;rounded=0;entryX=0.5;entryY=1;entryDx=0;entryDy=0;entryPerimeter=0;" edge="1" parent="1" source="vooGNpIg4JtQKSrzOWb7-21" target="vooGNpIg4JtQKSrzOWb7-3">
          <mxGeometry width="50" height="50" relative="1" as="geometry">
            <mxPoint x="540" y="510" as="sourcePoint" />
            <mxPoint x="600" y="420" as="targetPoint" />
          </mxGeometry>
        </mxCell>
        <mxCell id="vooGNpIg4JtQKSrzOWb7-6" value="Base de datos" style="shape=cylinder3;whiteSpace=wrap;html=1;boundedLbl=1;backgroundOutline=1;size=15;" vertex="1" parent="1">
          <mxGeometry x="510" y="515" width="60" height="70" as="geometry" />
        </mxCell>
        <mxCell id="vooGNpIg4JtQKSrzOWb7-7" value="Accede a catalogo" style="endArrow=classic;html=1;rounded=0;" edge="1" parent="1">
          <mxGeometry x="-0.0429" y="10" width="50" height="50" relative="1" as="geometry">
            <mxPoint x="119.5" y="240" as="sourcePoint" />
            <mxPoint x="329.5" y="240" as="targetPoint" />
            <mxPoint x="1" as="offset" />
          </mxGeometry>
        </mxCell>
        <mxCell id="vooGNpIg4JtQKSrzOWb7-9" value="" style="endArrow=classic;html=1;rounded=0;" edge="1" parent="1" source="vooGNpIg4JtQKSrzOWb7-16">
          <mxGeometry width="50" height="50" relative="1" as="geometry">
            <mxPoint x="329.5" y="270" as="sourcePoint" />
            <mxPoint x="119.5" y="270" as="targetPoint" />
          </mxGeometry>
        </mxCell>
        <mxCell id="vooGNpIg4JtQKSrzOWb7-11" value="" style="endArrow=classic;html=1;rounded=0;" edge="1" parent="1">
          <mxGeometry width="50" height="50" relative="1" as="geometry">
            <mxPoint x="119.5" y="300" as="sourcePoint" />
            <mxPoint x="330" y="300" as="targetPoint" />
          </mxGeometry>
        </mxCell>
        <mxCell id="vooGNpIg4JtQKSrzOWb7-12" value="Ingresa los datos del nuevo producto" style="edgeLabel;html=1;align=center;verticalAlign=middle;resizable=0;points=[];" connectable="0" vertex="1" parent="vooGNpIg4JtQKSrzOWb7-11">
          <mxGeometry x="-0.4347" y="4" relative="1" as="geometry">
            <mxPoint x="42" y="-6" as="offset" />
          </mxGeometry>
        </mxCell>
        <mxCell id="vooGNpIg4JtQKSrzOWb7-13" value="Valida y guarda los datos del producto" style="endArrow=classic;html=1;rounded=0;" edge="1" parent="1">
          <mxGeometry x="0.0499" y="10" width="50" height="50" relative="1" as="geometry">
            <mxPoint x="329.5" y="330" as="sourcePoint" />
            <mxPoint x="540" y="330" as="targetPoint" />
            <mxPoint as="offset" />
          </mxGeometry>
        </mxCell>
        <mxCell id="vooGNpIg4JtQKSrzOWb7-14" value="ConfirmaciÃ³n de almacenamiento" style="endArrow=classic;html=1;rounded=0;" edge="1" parent="1">
          <mxGeometry x="-0.0499" y="-10" width="50" height="50" relative="1" as="geometry">
            <mxPoint x="540" y="360" as="sourcePoint" />
            <mxPoint x="329.5" y="360" as="targetPoint" />
            <mxPoint as="offset" />
          </mxGeometry>
        </mxCell>
        <mxCell id="vooGNpIg4JtQKSrzOWb7-15" value="Muestra mensaje de exito" style="endArrow=classic;html=1;rounded=0;" edge="1" parent="1">
          <mxGeometry x="0.1381" y="-10" width="50" height="50" relative="1" as="geometry">
            <mxPoint x="329.5" y="400" as="sourcePoint" />
            <mxPoint x="119.5" y="400" as="targetPoint" />
            <mxPoint x="1" as="offset" />
          </mxGeometry>
        </mxCell>
        <mxCell id="vooGNpIg4JtQKSrzOWb7-17" value="" style="endArrow=classic;html=1;rounded=0;" edge="1" parent="1" target="vooGNpIg4JtQKSrzOWb7-16">
          <mxGeometry width="50" height="50" relative="1" as="geometry">
            <mxPoint x="329.5" y="270" as="sourcePoint" />
            <mxPoint x="119.5" y="270" as="targetPoint" />
          </mxGeometry>
        </mxCell>
        <mxCell id="vooGNpIg4JtQKSrzOWb7-18" value="Muestra opciones de gestion" style="edgeLabel;html=1;align=center;verticalAlign=middle;resizable=0;points=[];" connectable="0" vertex="1" parent="vooGNpIg4JtQKSrzOWb7-17">
          <mxGeometry x="-0.3857" y="-1" relative="1" as="geometry">
            <mxPoint x="-99" y="-9" as="offset" />
          </mxGeometry>
        </mxCell>
        <mxCell id="vooGNpIg4JtQKSrzOWb7-22" value="" style="endArrow=none;dashed=1;html=1;rounded=0;entryX=0.5;entryY=1;entryDx=0;entryDy=0;entryPerimeter=0;" edge="1" parent="1" target="vooGNpIg4JtQKSrzOWb7-21">
          <mxGeometry width="50" height="50" relative="1" as="geometry">
            <mxPoint x="540" y="510" as="sourcePoint" />
            <mxPoint x="540" y="210" as="targetPoint" />
          </mxGeometry>
        </mxCell>
        <mxCell id="vooGNpIg4JtQKSrzOWb7-21" value="" style="html=1;points=[[0,0,0,0,5],[0,1,0,0,-5],[1,0,0,0,5],[1,1,0,0,-5]];perimeter=orthogonalPerimeter;outlineConnect=0;targetShapes=umlLifeline;portConstraint=eastwest;newEdgeStyle={&quot;curved&quot;:0,&quot;rounded&quot;:0};" vertex="1" parent="1">
          <mxGeometry x="535" y="330" width="10" height="30" as="geometry" />
        </mxCell>
        <mxCell id="vooGNpIg4JtQKSrzOWb7-25" value="Sistema" style="html=1;whiteSpace=wrap;" vertex="1" parent="1">
          <mxGeometry x="280" y="510" width="110" height="40" as="geometry" />
        </mxCell>
        <mxCell id="vooGNpIg4JtQKSrzOWb7-26" value="Administrador" style="shape=umlActor;verticalLabelPosition=bottom;verticalAlign=top;html=1;" vertex="1" parent="1">
          <mxGeometry x="105" y="510" width="30" height="50" as="geometry" />
        </mxCell>
      </root>
    </mxGraphModel>
  </diagram>
</mxfile>
